<svg width="447" height="541" viewBox="0 0 447 541" fill="none" xmlns="http://www.w3.org/2000/svg">
<path d="M259 189V172L264 169H269.5L446 280V412L241 541H235L223 530V525L423 399V294L259 190V189Z" fill="#ffffff"/>
<path d="M153.5 455L8.5 365.5L1 368V386.767L148.5 480H156.5L332 366V331.5L125 196V185.5L288 84H289H290L439 179H444L447 176V157L293 58H285L101 174V207V208L308 342L310 344V352.5L153.5 455Z" fill="#ffffff"/>
<path d="M175 341V360L171 363H165L0 260V123L195 0H200.5L213 13V17L23 136V245.857L175 341Z" fill="#ffffff"/>
</svg>
